<?xml version="1.0" standalone="no"?>
<!DOCTYPE svg PUBLIC "-//W3C//DTD SVG 20010904//EN"
 "http://www.w3.org/TR/2001/REC-SVG-20010904/DTD/svg10.dtd">
<svg version="1.0" xmlns="http://www.w3.org/2000/svg"
 width="924.000000pt" height="924.000000pt" viewBox="0 0 924.000000 924.000000"
 preserveAspectRatio="xMidYMid meet">
<metadata>
Created by potrace 1.11, written by Peter Selinger 2001-2013
</metadata>
<g transform="translate(0.000000,924.000000) scale(0.100000,-0.100000)"
fill="#000000" stroke="none">
<path d="M4285 7442 c-2 -2 -40 -5 -85 -7 -85 -4 -183 -13 -221 -20 -13 -3
-41 -7 -64 -10 -65 -10 -97 -15 -145 -26 -25 -6 -52 -12 -60 -14 -90 -19 -323
-92 -413 -130 -20 -8 -38 -15 -39 -15 -11 3 -314 -160 -396 -213 -57 -37 -107
-67 -112 -67 -6 0 -10 -4 -10 -8 0 -5 -12 -15 -27 -23 -31 -16 -116 -70 -151
-96 -25 -18 -57 -38 -82 -49 -8 -4 -17 -10 -20 -13 -3 -4 -36 -27 -75 -51 -38
-25 -71 -48 -73 -52 -2 -5 -8 -8 -12 -8 -13 0 -582 -378 -615 -407 -7 -7 -18
-13 -23 -13 -6 0 -12 -4 -14 -8 -1 -4 -45 -37 -97 -72 -51 -36 -102 -73 -112
-82 -11 -10 -22 -18 -25 -18 -3 0 -11 -6 -19 -12 -7 -7 -32 -29 -56 -48 -70
-57 -92 -81 -81 -92 6 -6 25 -1 53 16 24 14 60 33 79 43 19 9 38 22 42 27 4 6
8 7 8 2 0 -5 8 -2 18 7 15 13 349 191 362 192 3 0 14 6 25 12 37 20 239 105
335 140 149 55 333 110 445 134 33 7 65 14 70 15 36 10 210 38 310 50 47 5
274 15 333 14 94 -1 251 -13 325 -24 20 -3 52 -8 70 -11 28 -4 95 -16 152 -29
11 -2 40 -10 65 -17 25 -7 50 -14 55 -14 24 -3 208 -66 288 -99 87 -36 247
-113 318 -154 20 -11 47 -26 60 -34 13 -7 26 -15 29 -18 3 -3 30 -21 60 -40
48 -30 197 -134 225 -157 27 -23 249 -189 263 -198 9 -5 19 -12 22 -15 18 -19
141 -110 149 -110 5 0 11 -4 13 -8 2 -5 68 -57 148 -116 80 -59 152 -112 160
-119 8 -7 40 -30 70 -52 30 -22 57 -43 58 -47 2 -5 10 -8 17 -8 7 0 15 -3 17
-7 3 -8 61 -54 104 -83 23 -15 269 -196 289 -211 41 -34 106 -79 113 -79 4 0
13 -9 20 -20 7 -11 16 -20 22 -20 7 0 82 -53 195 -138 6 -4 73 -52 150 -107
77 -55 142 -102 145 -105 7 -7 516 -373 537 -385 9 -5 28 -20 42 -32 14 -13
29 -23 32 -23 3 0 19 -11 35 -25 16 -14 32 -25 36 -25 4 0 13 -6 20 -13 7 -7
40 -33 73 -58 33 -25 82 -62 108 -82 82 -62 132 -81 222 -81 l80 -1 95 64 c52
35 97 67 98 72 2 5 8 9 13 9 5 0 47 28 95 63 47 34 93 67 102 72 18 12 50 36
66 51 6 5 26 19 44 29 17 11 32 23 32 27 0 4 5 8 11 8 6 0 16 6 23 13 8 6 24
19 36 27 20 14 80 58 105 78 6 4 55 41 110 81 210 155 235 174 235 177 0 2
-73 56 -130 94 -77 53 -409 283 -421 293 -8 7 -23 17 -32 22 -9 6 -135 93
-282 195 -146 102 -273 190 -283 195 -9 6 -19 13 -22 16 -5 5 -169 119 -215
149 -43 27 -210 144 -215 149 -3 3 -13 11 -22 16 -17 10 -80 53 -228 156 -41
28 -124 86 -185 127 -60 42 -111 80 -113 84 -2 4 -8 8 -12 8 -5 0 -30 15 -56
33 -25 17 -53 37 -62 42 -8 6 -23 16 -31 22 -16 13 -268 186 -481 330 -63 43
-117 80 -120 83 -3 3 -61 43 -130 89 -69 47 -126 88 -128 93 -2 4 -9 8 -16 8
-7 0 -26 11 -42 25 -16 14 -32 25 -36 25 -4 0 -13 6 -20 13 -8 6 -21 17 -30
22 -9 6 -155 103 -325 217 -264 178 -353 230 -488 288 -11 4 -31 11 -45 15
-14 3 -48 12 -77 20 -28 8 -62 16 -75 19 -12 3 -34 7 -48 10 -14 3 -44 8 -67
11 -23 3 -57 7 -75 10 -83 12 -385 25 -393 17z"/>
<path d="M2365 6042 c-2 -2 -32 -5 -67 -7 -161 -8 -365 -60 -523 -135 -11 -5
-94 -42 -185 -81 -91 -39 -185 -81 -210 -92 -25 -11 -47 -21 -50 -22 -5 -1
-59 -26 -240 -111 -373 -174 -614 -313 -595 -343 6 -10 104 -8 204 3 96 11
206 22 346 33 113 9 473 9 580 0 236 -20 449 -67 620 -137 17 -7 39 -16 50
-20 144 -57 404 -198 590 -322 104 -70 330 -232 345 -248 3 -3 66 -52 140
-110 74 -57 137 -106 140 -109 3 -4 43 -35 90 -71 47 -35 90 -68 95 -72 6 -5
35 -27 65 -50 30 -24 66 -53 80 -65 14 -13 28 -23 31 -23 3 0 15 -8 26 -17 11
-10 33 -28 49 -40 16 -12 85 -66 154 -119 69 -53 136 -105 150 -115 14 -11 61
-47 106 -82 44 -34 95 -73 114 -87 46 -35 232 -178 250 -193 9 -6 60 -45 115
-86 55 -41 107 -80 115 -88 8 -7 44 -34 80 -60 36 -26 74 -56 84 -65 11 -10
23 -18 27 -18 5 0 16 -8 26 -18 10 -10 72 -58 138 -107 66 -49 126 -95 133
-102 7 -7 17 -13 21 -13 4 0 16 -8 27 -17 11 -10 42 -34 69 -53 28 -19 52 -38
53 -42 2 -4 8 -8 14 -8 6 0 27 -13 47 -29 60 -48 194 -110 272 -127 20 -4 100
-13 134 -16 72 -4 240 30 373 77 153 53 263 108 446 223 54 34 102 62 106 62
5 0 10 3 12 8 2 4 41 33 88 64 162 108 374 259 368 263 -2 1 -61 41 -133 90
-71 49 -151 103 -177 122 -26 18 -50 33 -54 33 -3 0 -11 6 -18 13 -8 6 -24 19
-36 27 -12 8 -33 23 -45 33 -13 9 -28 17 -33 17 -6 0 -12 3 -14 8 -3 7 -68 52
-263 183 -44 30 -81 57 -83 61 -2 5 -10 8 -17 8 -7 0 -15 3 -17 8 -5 10 -66
52 -77 52 -5 0 -11 4 -13 8 -3 8 -258 185 -298 208 -11 6 -28 18 -38 27 -10
10 -23 17 -29 17 -5 0 -18 9 -28 20 -10 11 -24 20 -32 20 -7 0 -13 4 -13 8 0
5 -12 15 -27 23 -16 8 -30 17 -33 20 -3 3 -77 55 -165 114 -88 60 -188 128
-221 152 -34 23 -66 43 -72 43 -6 0 -12 4 -14 8 -1 5 -91 68 -198 140 -107 72
-199 135 -205 139 -5 5 -59 42 -120 83 -60 40 -111 77 -113 82 -2 4 -8 8 -13
8 -9 0 -127 77 -139 91 -3 3 -12 8 -20 12 -15 7 -134 88 -157 107 -7 5 -16 10
-22 10 -5 0 -11 4 -13 8 -4 12 -395 272 -408 272 -5 0 -10 5 -10 10 0 6 -4 10
-8 10 -4 0 -49 22 -99 48 -104 56 -302 147 -418 193 -44 17 -91 36 -105 42
-14 5 -29 11 -35 12 -5 2 -59 19 -118 39 -59 20 -118 38 -130 41 -12 2 -67 16
-122 30 -55 14 -113 28 -130 30 -16 3 -38 8 -48 11 -19 6 -25 7 -107 18 -25 3
-61 9 -80 11 -19 3 -73 7 -120 10 -47 2 -85 5 -85 6 0 3 -127 4 -130 1z"/>
<path d="M758 4895 c-2 -2 -52 -6 -113 -9 -60 -3 -121 -8 -135 -10 -14 -3 -59
-7 -100 -11 -41 -4 -88 -9 -105 -11 -16 -2 -48 -6 -70 -9 -62 -7 -183 -41
-210 -59 -14 -9 -25 -24 -25 -32 0 -25 48 -85 108 -134 30 -25 66 -55 81 -67
14 -12 66 -52 116 -88 50 -36 97 -72 105 -78 8 -7 47 -34 85 -62 199 -140 486
-363 639 -497 76 -67 305 -295 504 -504 381 -398 507 -527 917 -938 248 -249
493 -491 545 -539 180 -166 339 -257 560 -321 99 -28 154 -39 265 -53 77 -10
333 -10 407 0 102 14 195 46 340 116 79 38 146 69 149 68 4 -1 15 5 25 14 11
8 62 37 114 63 52 27 118 61 145 76 28 15 92 50 143 76 51 27 104 55 117 62
14 7 25 16 25 20 -1 4 -33 30 -73 59 -40 29 -83 61 -97 72 -27 21 -141 108
-330 250 -63 47 -116 89 -118 94 -2 4 -10 7 -18 7 -8 0 -14 4 -14 8 0 5 -25
26 -55 47 -31 21 -70 51 -88 66 -17 16 -35 29 -39 29 -4 0 -13 6 -20 13 -7 7
-40 33 -73 57 -33 25 -65 50 -71 55 -27 24 -52 43 -66 51 -9 5 -31 21 -49 36
-19 15 -209 160 -424 323 -214 163 -399 304 -410 313 -12 9 -66 51 -120 92
-55 41 -111 85 -125 97 -14 13 -28 23 -32 23 -3 0 -13 6 -20 13 -7 7 -92 73
-188 147 -96 74 -180 139 -187 145 -23 19 -38 30 -78 60 -22 17 -42 32 -45 35
-3 3 -25 21 -50 40 -25 19 -50 39 -57 45 -24 19 -38 31 -78 60 -22 17 -42 33
-45 36 -3 4 -44 38 -91 75 -47 38 -117 98 -155 133 -95 88 -294 233 -294 214
0 -5 -4 -3 -8 3 -26 42 -376 178 -512 200 -63 10 -87 15 -110 20 -24 6 -486
14 -492 9z"/>
</g>
</svg>
